<?xml version="1.0" encoding="UTF-8"?>
<!DOCTYPE svg PUBLIC "-//W3C//DTD SVG 1.1//EN" "http://www.w3.org/Graphics/SVG/1.1/DTD/svg11.dtd">
<!-- Creator: CorelDRAW 2021 (64-Bit Versión de evaluación) -->
<svg xmlns="http://www.w3.org/2000/svg" xml:space="preserve" width="119.003mm" height="22.6986mm" version="1.1" style="shape-rendering:geometricPrecision; text-rendering:geometricPrecision; image-rendering:optimizeQuality; fill-rule:evenodd; clip-rule:evenodd"
viewBox="0 0 19528.85 3724.92"
 xmlns:xlink="http://www.w3.org/1999/xlink"
 xmlns:xodm="http://www.corel.com/coreldraw/odm/2003">
 <defs>
  <style type="text/css">
   <![CDATA[
    .fil1 {fill:black}
    .fil0 {fill:#01CC37}
   ]]>
  </style>
 </defs>
 <g id="Capa_x0020_1">
  <metadata id="CorelCorpID_0Corel-Layer"/>
  <path class="fil0" d="M16176.15 380.95c451.86,338.74 744.34,878.55 744.34,1486.78 0,1025.65 -756.75,1846.43 -1857.1,1857.1 -1100.33,10.67 -1876.41,-1008.75 -1876.41,-1818.42 0,-638.36 284.56,-1142.51 699.03,-1472.5 16.71,-17.02 61.69,3.27 77.69,17.99l467.99 468.91c33.18,32.12 24.22,92.1 -7.4,120.58 -246.66,191.07 -405.5,490.16 -405.5,826.34 0,576.92 467.7,1044.62 1044.6,1044.62 576.92,0 1044.62,-467.7 1044.62,-1044.62 0,-382.18 -205.24,-716.38 -511.48,-898.47 -49.51,-30.08 -29.59,-58.81 -8.35,-83.51l500.14 -505.01c19.69,-21.89 57.49,-23.55 87.83,0.21z"/>
  <rect class="fil0" x="14713.57" y="-0" width="609.72" height="1925.24" rx="168.46" ry="214.92"/>
  <path class="fil1" d="M17133.94 3041.06l644.48 0 98.36 -1587.18 837.19 -15.8c213.53,-4.02 209.31,62.72 196.71,266.41l-83.63 1346.95 601.59 2.56 98.3 -1607.43c25.96,-424.49 -217.26,-675.14 -611.02,-677.09l-1625.02 -8.04 -156.97 2279.63z"/>
  <g id="_3245040810880">
   <path class="fil1" d="M-0 3039.56l652.05 0 110.77 -1647.98 481.66 -0.02 -110.92 1645.73 650.28 2.26 129.51 -1647.98c0,0 417.32,0 417.32,0l-91.82 1647.98 590.71 0 90.39 -1643.7c33.72,-637.92 -166.19,-720.76 -827.85,-700.28l-1956.35 5.1 -135.75 2338.87z"/>
   <path class="fil1" d="M9321.65 1447.38c-97.26,343.81 -149.47,1069.56 126.16,1396.36 111.03,139.93 304.72,189.11 481.81,195.82l1707.22 0 21.66 -629.83c-479.18,1.92 -1067.74,9.58 -1527.2,16.26 -157.13,2.31 -219.7,-97.87 -178.33,-265.52l1714.05 0 20.64 -605.87 -1681.65 0c-14.26,-12.44 -12.23,-248.96 203.36,-269.44l1487.39 -0.02 20.12 -584.46 -1765.46 0c-329.93,0 -551.13,468.68 -629.76,746.69z"/>
   <path class="fil1" d="M4330.88 2397.36c-180.46,-16.49 -262.01,-86.01 -251,-245.48l38.65 -560.25c12.36,-179.6 144.31,-295.37 330.73,-302.64l453.39 -17.66c209.05,-8.16 395.29,35.4 375.26,277.24l-49.97 602.69c-12.7,153.35 -142.67,201.16 -268.42,225.25 -151.3,28.98 -468.17,35.53 -628.63,20.86zm-820.5 144.56c52.27,287.95 207.79,502.26 535.73,497.64 0,0 1229.04,0 1229.04,0 319.25,-71.99 495.07,-294.02 589.58,-742.98 52.22,-247.99 108.05,-893.09 23.83,-1137.57 -65.28,-189.56 -160.17,-347.59 -361.59,-409.78 -203.46,-62.8 -877.04,-48.08 -1117.74,-42.67 -551.93,13.05 -728.18,106.59 -806.09,422.32 -99.12,401.76 -173.42,968.29 -92.75,1413.03z"/>
   <path class="fil1" d="M9072.2 700.69l-695.85 0 -773.13 1295.65 -601.78 -1295.65 -766.43 0 908.77 2099.89c142.41,329.01 626.29,301.38 761.42,52.18l1166.99 -2152.07z"/>
  </g>
 </g>
</svg>
