<?xml version="1.0" encoding="UTF-8"?>
<!DOCTYPE svg PUBLIC "-//W3C//DTD SVG 1.1//EN" "http://www.w3.org/Graphics/SVG/1.1/DTD/svg11.dtd">
<!-- Creator: CorelDRAW 2021 (64-Bit Versión de evaluación) -->
<svg xmlns="http://www.w3.org/2000/svg" xml:space="preserve" width="11.4962mm" height="11.4543mm" version="1.1" style="shape-rendering:geometricPrecision; text-rendering:geometricPrecision; image-rendering:optimizeQuality; fill-rule:evenodd; clip-rule:evenodd"
viewBox="0 0 149.07 148.53"
 xmlns:xlink="http://www.w3.org/1999/xlink"
 xmlns:xodm="http://www.corel.com/coreldraw/odm/2003">
 <defs>
  <style type="text/css">
   <![CDATA[
    .fil0 {fill:#01CC37}
   ]]>
  </style>
 </defs>
 <g id="Capa_x0020_1">
  <metadata id="CorelCorpID_0Corel-Layer"/>
  <path class="fil0" d="M119.35 15.01c18.04,13.53 29.72,35.08 29.72,59.37 0,40.95 -30.21,73.73 -74.15,74.15 -43.94,0.43 -74.92,-40.28 -74.92,-72.61 0,-25.49 11.36,-45.62 27.91,-58.8 0.67,-0.68 2.46,0.13 3.1,0.72l18.69 18.72c1.33,1.28 0.97,3.68 -0.3,4.81 -9.85,7.63 -16.19,19.57 -16.19,33 0,23.03 18.67,41.71 41.71,41.71 23.03,0 41.71,-18.68 41.71,-41.71 0,-15.26 -8.2,-28.6 -20.42,-35.88 -1.98,-1.2 -1.18,-2.35 -0.33,-3.34l19.97 -20.16c0.79,-0.87 2.3,-0.94 3.51,0.01z"/>
  <rect class="fil0" x="61.02" y="-0" width="24.22" height="76.47" rx="6.69" ry="8.54"/>
 </g>
</svg>
